<svg xmlns="http://www.w3.org/2000/svg" viewBox="0 0 497 273.17"><defs><style>.cls-1{fill:#fff;}.cls-2,.cls-4{fill:none;stroke-miterlimit:10;}.cls-2{stroke:#2e3192;stroke-width:12px;}.cls-3{fill:#fee445;}.cls-4{stroke:#fff;stroke-width:10px;}.cls-5{fill:#333;}.cls-6{fill:#2e3192;}</style></defs><g id="レイヤー_2" data-name="レイヤー 2"><g id="レイヤー_1-2" data-name="レイヤー 1"><rect class="cls-1" y="0.17" width="497" height="273"/><path d="M117.51,9.32h41q19.44,0,29.45,3a29.18,29.18,0,0,1,16.16,12.24q6.15,9.22,6.15,29.72,0,13.86-4.34,19.32T188.8,82q14.25,3.21,19.33,10.69t5.08,22.92v14.65q0,16-3.66,23.75a19.73,19.73,0,0,1-11.67,10.55q-8,2.83-32.81,2.84H117.51Zm41.11,27.05V71.53c1.76-.07,3.13-.1,4.1-.1q6.06,0,7.72-3t1.66-17c0-4.95-.46-8.41-1.37-10.4a6.54,6.54,0,0,0-3.56-3.76Q165,36.47,158.62,36.37Zm0,59.77v44.24q8.7-.3,11.09-2.74t2.39-12V110.88q0-10.16-2.15-12.3T158.62,96.14Z"/><path d="M316,78.17H274.84V50.69q0-12-1.32-15c-.88-2-2.81-3-5.81-3q-5.07,0-6.44,3.61T259.9,52v73.43q0,11.53,1.37,15t6.15,3.52q4.59,0,6-3.53t1.42-16.54V104.05H316v6.16q0,24.54-3.46,34.81t-15.33,18q-11.87,7.72-29.25,7.73-18.08,0-29.79-6.55t-15.53-18.11q-3.79-11.58-3.8-34.82V65.08q0-17.08,1.17-25.63a35.94,35.94,0,0,1,7-16.46,38.94,38.94,0,0,1,16.11-12.45A58.21,58.21,0,0,1,266.74,6q18.15,0,30,7t15.52,17.51Q316,41,316,63.15Z"/><path d="M363.81,9.32V135.79h25v31.64H322.7V9.32Z"/><path class="cls-2" d="M117.51,9.32h41q19.44,0,29.45,3a29.18,29.18,0,0,1,16.16,12.24q6.15,9.22,6.15,29.72,0,13.86-4.34,19.32T188.8,82q14.25,3.21,19.33,10.69t5.08,22.92v14.65q0,16-3.66,23.75a19.73,19.73,0,0,1-11.67,10.55q-8,2.83-32.81,2.84H117.51Zm41.11,27.05V71.53c1.76-.07,3.13-.1,4.1-.1q6.06,0,7.72-3t1.66-17c0-4.95-.46-8.41-1.37-10.4a6.54,6.54,0,0,0-3.56-3.76Q165,36.47,158.62,36.37Zm0,59.77v44.24q8.7-.3,11.09-2.74t2.39-12V110.88q0-10.16-2.15-12.3T158.62,96.14Z"/><path class="cls-2" d="M316,78.17H274.84V50.69q0-12-1.32-15c-.88-2-2.81-3-5.81-3q-5.07,0-6.44,3.61T259.9,52v73.43q0,11.53,1.37,15t6.15,3.52q4.59,0,6-3.53t1.42-16.54V104.05H316v6.16q0,24.54-3.46,34.81t-15.33,18q-11.87,7.72-29.25,7.73-18.08,0-29.79-6.55t-15.53-18.11q-3.79-11.58-3.8-34.82V65.08q0-17.08,1.17-25.63a35.94,35.94,0,0,1,7-16.46,38.94,38.94,0,0,1,16.11-12.45A58.21,58.21,0,0,1,266.74,6q18.15,0,30,7t15.52,17.51Q316,41,316,63.15Z"/><path class="cls-2" d="M363.81,9.32V135.79h25v31.64H322.7V9.32Z"/><path class="cls-3" d="M117.51,9.32h41q19.44,0,29.45,3a29.18,29.18,0,0,1,16.16,12.24q6.15,9.22,6.15,29.72,0,13.86-4.34,19.32T188.8,82q14.25,3.21,19.33,10.69t5.08,22.92v14.65q0,16-3.66,23.75a19.73,19.73,0,0,1-11.67,10.55q-8,2.83-32.81,2.84H117.51Zm41.11,27.05V71.53c1.76-.07,3.13-.1,4.1-.1q6.06,0,7.72-3t1.66-17c0-4.95-.46-8.41-1.37-10.4a6.54,6.54,0,0,0-3.56-3.76Q165,36.47,158.62,36.37Zm0,59.77v44.24q8.7-.3,11.09-2.74t2.39-12V110.88q0-10.16-2.15-12.3T158.62,96.14Z"/><path class="cls-3" d="M316,78.17H274.84V50.69q0-12-1.32-15c-.88-2-2.81-3-5.81-3q-5.07,0-6.44,3.61T259.9,52v73.43q0,11.53,1.37,15t6.15,3.52q4.59,0,6-3.53t1.42-16.54V104.05H316v6.16q0,24.54-3.46,34.81t-15.33,18q-11.87,7.72-29.25,7.73-18.08,0-29.79-6.55t-15.53-18.11q-3.79-11.58-3.8-34.82V65.08q0-17.08,1.17-25.63a35.94,35.94,0,0,1,7-16.46,38.94,38.94,0,0,1,16.11-12.45A58.21,58.21,0,0,1,266.74,6q18.15,0,30,7t15.52,17.51Q316,41,316,63.15Z"/><path class="cls-3" d="M363.81,9.32V135.79h25v31.64H322.7V9.32Z"/><path d="M122.21,143.78v10c-4.07,0-6.47.18-7.2.56s-1.1,1.44-1.1,3.2v2h8.3v10.25h-4.69v53H97.8v-53H93.74V159.6H97.8a51.58,51.58,0,0,1,.44-8.55,7.27,7.27,0,0,1,2.17-3.83,11.09,11.09,0,0,1,4.86-2.56,38.77,38.77,0,0,1,9.71-.88Z"/><path d="M166.6,180.79v15.87a66.51,66.51,0,0,1-.88,12.81,18,18,0,0,1-3.76,7.62,17.06,17.06,0,0,1-7.4,5.23A29.64,29.64,0,0,1,144.19,224a37.09,37.09,0,0,1-11.09-1.44,15.07,15.07,0,0,1-7-4.35,17,17,0,0,1-3.59-7,52.52,52.52,0,0,1-1.08-12.37V182.2q0-9,2-14.11a16.2,16.2,0,0,1,7-8.15q5.07-3.08,13-3.08a29.66,29.66,0,0,1,11.4,2,17.87,17.87,0,0,1,10.89,11.69A41,41,0,0,1,166.6,180.79Zm-19.73-4.88q0-5-.53-6.28a2.23,2.23,0,0,0-2.3-1.29,2.31,2.31,0,0,0-2.34,1.29q-.58,1.29-.59,6.28v29.24c0,3.06.2,5.06.59,6a2.25,2.25,0,0,0,2.29,1.4,2.28,2.28,0,0,0,2.32-1.27c.38-.85.56-2.67.56-5.47Z"/><path d="M189.41,143.78v79.05H169.09V143.78Z"/><path d="M212.8,143.78v79.05H192.49V143.78Z"/><path d="M260.51,180.79v15.87a67.35,67.35,0,0,1-.88,12.81,18,18,0,0,1-3.76,7.62,17.06,17.06,0,0,1-7.4,5.23A29.64,29.64,0,0,1,238.1,224,37,37,0,0,1,227,222.56a15,15,0,0,1-7-4.35,17,17,0,0,1-3.59-7,52.52,52.52,0,0,1-1.08-12.37V182.2q0-9,2-14.11a16.2,16.2,0,0,1,7-8.15q5.07-3.08,13-3.08a29.66,29.66,0,0,1,11.4,2,17.87,17.87,0,0,1,10.89,11.69A41,41,0,0,1,260.51,180.79Zm-19.73-4.88q0-5-.54-6.28a2.2,2.2,0,0,0-2.29-1.29,2.31,2.31,0,0,0-2.34,1.29c-.4.86-.59,3-.59,6.28v29.24c0,3.06.19,5.06.59,6a2.25,2.25,0,0,0,2.29,1.4,2.29,2.29,0,0,0,2.32-1.27,16.71,16.71,0,0,0,.56-5.47Z"/><path d="M326.77,158l-7.87,64.8H297.49q-1.75-11.88-4.09-31.3-.81,8.55-2.22,17.24L289,222.83H267.55L259.19,158h17q.19,2.55,4.31,37.11.32-3.55,4.43-37.11h16.33l4,37.11A337.92,337.92,0,0,1,309.79,158Z"/><path d="M370.62,191.58H345.09v14q0,4.4.63,5.67a2.48,2.48,0,0,0,2.44,1.27,3,3,0,0,0,3-1.69q.75-1.68.75-6.52v-8.54h18.7v4.78a43.22,43.22,0,0,1-.75,9.23,19,19,0,0,1-3.54,6.89,17.27,17.27,0,0,1-7.06,5.49A27.33,27.33,0,0,1,348.55,224a31,31,0,0,1-11-1.81,17.6,17.6,0,0,1-7.45-4.95,18,18,0,0,1-3.69-6.94,45,45,0,0,1-1-11V180.4c0-5.67.76-10.13,2.29-13.41a15.82,15.82,0,0,1,7.52-7.52,26.57,26.57,0,0,1,12-2.61q8.3,0,13.69,3.15a17.31,17.31,0,0,1,7.57,8.35q2.18,5.2,2.17,14.63ZM350.85,181V176.3c0-3.36-.18-5.52-.54-6.5a2.13,2.13,0,0,0-2.2-1.46c-1.36,0-2.21.41-2.54,1.24s-.48,3.07-.48,6.72V181Z"/><path d="M392.79,158l-.78,8.52q4.31-9.15,12.45-9.69v22.81c-3.61,0-6.26.48-7.95,1.46a6.15,6.15,0,0,0-3.13,4.08q-.58,2.61-.59,12v25.59H373.07V158Z"/><path class="cls-4" d="M122.21,143.78v10c-4.07,0-6.47.18-7.2.56s-1.1,1.44-1.1,3.2v2h8.3v10.25h-4.69v53H97.8v-53H93.74V159.6H97.8a51.58,51.58,0,0,1,.44-8.55,7.27,7.27,0,0,1,2.17-3.83,11.09,11.09,0,0,1,4.86-2.56,38.77,38.77,0,0,1,9.71-.88Z"/><path class="cls-4" d="M166.6,180.79v15.87a66.51,66.51,0,0,1-.88,12.81,18,18,0,0,1-3.76,7.62,17.06,17.06,0,0,1-7.4,5.23A29.64,29.64,0,0,1,144.19,224a37.09,37.09,0,0,1-11.09-1.44,15.07,15.07,0,0,1-7-4.35,17,17,0,0,1-3.59-7,52.52,52.52,0,0,1-1.08-12.37V182.2q0-9,2-14.11a16.2,16.2,0,0,1,7-8.15q5.07-3.08,13-3.08a29.66,29.66,0,0,1,11.4,2,17.87,17.87,0,0,1,10.89,11.69A41,41,0,0,1,166.6,180.79Zm-19.73-4.88q0-5-.53-6.28a2.23,2.23,0,0,0-2.3-1.29,2.31,2.31,0,0,0-2.34,1.29q-.58,1.29-.59,6.28v29.24c0,3.06.2,5.06.59,6a2.25,2.25,0,0,0,2.29,1.4,2.28,2.28,0,0,0,2.32-1.27c.38-.85.56-2.67.56-5.47Z"/><path class="cls-4" d="M189.41,143.78v79.05H169.09V143.78Z"/><path class="cls-4" d="M212.8,143.78v79.05H192.49V143.78Z"/><path class="cls-4" d="M260.51,180.79v15.87a67.35,67.35,0,0,1-.88,12.81,18,18,0,0,1-3.76,7.62,17.06,17.06,0,0,1-7.4,5.23A29.64,29.64,0,0,1,238.1,224,37,37,0,0,1,227,222.56a15,15,0,0,1-7-4.35,17,17,0,0,1-3.59-7,52.52,52.52,0,0,1-1.08-12.37V182.2q0-9,2-14.11a16.2,16.2,0,0,1,7-8.15q5.07-3.08,13-3.08a29.66,29.66,0,0,1,11.4,2,17.87,17.87,0,0,1,10.89,11.69A41,41,0,0,1,260.51,180.79Zm-19.73-4.88q0-5-.54-6.28a2.2,2.2,0,0,0-2.29-1.29,2.31,2.31,0,0,0-2.34,1.29c-.4.86-.59,3-.59,6.28v29.24c0,3.06.19,5.06.59,6a2.25,2.25,0,0,0,2.29,1.4,2.29,2.29,0,0,0,2.32-1.27,16.71,16.71,0,0,0,.56-5.47Z"/><path class="cls-4" d="M326.77,158l-7.87,64.8H297.49q-1.75-11.88-4.09-31.3-.81,8.55-2.22,17.24L289,222.83H267.55L259.19,158h17q.19,2.55,4.31,37.11.32-3.55,4.43-37.11h16.33l4,37.11A337.92,337.92,0,0,1,309.79,158Z"/><path class="cls-4" d="M370.62,191.58H345.09v14q0,4.4.63,5.67a2.48,2.48,0,0,0,2.44,1.27,3,3,0,0,0,3-1.69q.75-1.68.75-6.52v-8.54h18.7v4.78a43.22,43.22,0,0,1-.75,9.23,19,19,0,0,1-3.54,6.89,17.27,17.27,0,0,1-7.06,5.49A27.33,27.33,0,0,1,348.55,224a31,31,0,0,1-11-1.81,17.6,17.6,0,0,1-7.45-4.95,18,18,0,0,1-3.69-6.94,45,45,0,0,1-1-11V180.4c0-5.67.76-10.13,2.29-13.41a15.82,15.82,0,0,1,7.52-7.52,26.57,26.57,0,0,1,12-2.61q8.3,0,13.69,3.15a17.31,17.31,0,0,1,7.57,8.35q2.18,5.2,2.17,14.63ZM350.85,181V176.3c0-3.36-.18-5.52-.54-6.5a2.13,2.13,0,0,0-2.2-1.46c-1.36,0-2.21.41-2.54,1.24s-.48,3.07-.48,6.72V181Z"/><path class="cls-4" d="M392.79,158l-.78,8.52q4.31-9.15,12.45-9.69v22.81c-3.61,0-6.26.48-7.95,1.46a6.15,6.15,0,0,0-3.13,4.08q-.58,2.61-.59,12v25.59H373.07V158Z"/><path class="cls-5" d="M122.21,143.78v10c-4.07,0-6.47.18-7.2.56s-1.1,1.44-1.1,3.2v2h8.3v10.25h-4.69v53H97.8v-53H93.74V159.6H97.8a51.58,51.58,0,0,1,.44-8.55,7.27,7.27,0,0,1,2.17-3.83,11.09,11.09,0,0,1,4.86-2.56,38.77,38.77,0,0,1,9.71-.88Z"/><path class="cls-5" d="M166.6,180.79v15.87a66.51,66.51,0,0,1-.88,12.81,18,18,0,0,1-3.76,7.62,17.06,17.06,0,0,1-7.4,5.23A29.64,29.64,0,0,1,144.19,224a37.09,37.09,0,0,1-11.09-1.44,15.07,15.07,0,0,1-7-4.35,17,17,0,0,1-3.59-7,52.52,52.52,0,0,1-1.08-12.37V182.2q0-9,2-14.11a16.2,16.2,0,0,1,7-8.15q5.07-3.08,13-3.08a29.66,29.66,0,0,1,11.4,2,17.87,17.87,0,0,1,10.89,11.69A41,41,0,0,1,166.6,180.79Zm-19.73-4.88q0-5-.53-6.28a2.23,2.23,0,0,0-2.3-1.29,2.31,2.31,0,0,0-2.34,1.29q-.58,1.29-.59,6.28v29.24c0,3.06.2,5.06.59,6a2.25,2.25,0,0,0,2.29,1.4,2.28,2.28,0,0,0,2.32-1.27c.38-.85.56-2.67.56-5.47Z"/><path class="cls-5" d="M189.41,143.78v79.05H169.09V143.78Z"/><path class="cls-5" d="M212.8,143.78v79.05H192.49V143.78Z"/><path class="cls-5" d="M260.51,180.79v15.87a67.35,67.35,0,0,1-.88,12.81,18,18,0,0,1-3.76,7.62,17.06,17.06,0,0,1-7.4,5.23A29.64,29.64,0,0,1,238.1,224,37,37,0,0,1,227,222.56a15,15,0,0,1-7-4.35,17,17,0,0,1-3.59-7,52.52,52.52,0,0,1-1.08-12.37V182.2q0-9,2-14.11a16.2,16.2,0,0,1,7-8.15q5.07-3.08,13-3.08a29.66,29.66,0,0,1,11.4,2,17.87,17.87,0,0,1,10.89,11.69A41,41,0,0,1,260.51,180.79Zm-19.73-4.88q0-5-.54-6.28a2.2,2.2,0,0,0-2.29-1.29,2.31,2.31,0,0,0-2.34,1.29c-.4.86-.59,3-.59,6.28v29.24c0,3.06.19,5.06.59,6a2.25,2.25,0,0,0,2.29,1.4,2.29,2.29,0,0,0,2.32-1.27,16.71,16.71,0,0,0,.56-5.47Z"/><path class="cls-5" d="M326.77,158l-7.87,64.8H297.49q-1.75-11.88-4.09-31.3-.81,8.55-2.22,17.24L289,222.83H267.55L259.19,158h17q.19,2.55,4.31,37.11.32-3.55,4.43-37.11h16.33l4,37.11A337.92,337.92,0,0,1,309.79,158Z"/><path class="cls-5" d="M370.62,191.58H345.09v14q0,4.4.63,5.67a2.48,2.48,0,0,0,2.44,1.27,3,3,0,0,0,3-1.69q.75-1.68.75-6.52v-8.54h18.7v4.78a43.22,43.22,0,0,1-.75,9.23,19,19,0,0,1-3.54,6.89,17.27,17.27,0,0,1-7.06,5.49A27.33,27.33,0,0,1,348.55,224a31,31,0,0,1-11-1.81,17.6,17.6,0,0,1-7.45-4.95,18,18,0,0,1-3.69-6.94,45,45,0,0,1-1-11V180.4c0-5.67.76-10.13,2.29-13.41a15.82,15.82,0,0,1,7.52-7.52,26.57,26.57,0,0,1,12-2.61q8.3,0,13.69,3.15a17.31,17.31,0,0,1,7.57,8.35q2.18,5.2,2.17,14.63ZM350.85,181V176.3c0-3.36-.18-5.52-.54-6.5a2.13,2.13,0,0,0-2.2-1.46c-1.36,0-2.21.41-2.54,1.24s-.48,3.07-.48,6.72V181Z"/><path class="cls-5" d="M392.79,158l-.78,8.52q4.31-9.15,12.45-9.69v22.81c-3.61,0-6.26.48-7.95,1.46a6.15,6.15,0,0,0-3.13,4.08q-.58,2.61-.59,12v25.59H373.07V158Z"/><path d="M18.27,231.14,16.86,240H21.7l1.41-8.85h6.47L28.17,240H33v5.94H27.2l-1.06,6.73H31v5.94H25.22l-1.45,9.16H17.3l1.45-9.16H13.91l-1.45,9.16H6l1.45-9.16H2.56v-5.94H8.41l1.06-6.73H4.58V240h5.85l1.41-8.85Zm-3.39,21.52h4.84l1-6.73H15.89Z"/><path d="M37.4,233.92a63.8,63.8,0,0,0,12.68.92c.53,0,1.1,0,2.42,0a30.71,30.71,0,0,0-.27-4.8H60a27.31,27.31,0,0,0-.35,4.58A69,69,0,0,0,72.13,233l.22,6.73c-1.28.09-1.54.09-3.88.4a87.62,87.62,0,0,1-8.84.74v2.78A70.35,70.35,0,0,0,71,242.37l.18,6.73c-.93,0-.93,0-2.82.22s-6.2.53-8.62.61c0,2,0,2,.13,3.88a25.12,25.12,0,0,1,6,2.37,43.84,43.84,0,0,1,5.89,3.66c.66.44,1,.61,1.68,1.05L69.26,268a23.44,23.44,0,0,0-3-2.82A23,23,0,0,0,60,261.24,7.66,7.66,0,0,1,59,265.69c-1.45,2.24-4.8,3.48-9.6,3.48-7.21,0-11.31-2.95-11.31-8.06,0-3.21,2-5.85,5.55-7.17a22.28,22.28,0,0,1,7.83-1.19h1.37c-.05-1.5-.09-2.38-.09-2.6-.93,0-2.73,0-3.39,0-2.55,0-4.58,0-7.08-.18-1.94-.09-2.16-.13-3.48-.13l.09-6.56a67.15,67.15,0,0,0,10.82.71c.93,0,1.59,0,3,0v-.66c0-.08,0-.08,0-1.14v-1.06c-1,.05-1.46.05-1.85.05-2.38,0-3.13-.05-8.19-.27-1.67,0-1.67,0-3.3-.13-.61,0-1,0-1.19,0h-.74ZM50.12,259c-2.68,0-4.22.75-4.22,2.11,0,1.1,1.23,1.76,3.43,1.76,2.46,0,3.52-.83,3.52-2.81,0-.27,0-.75,0-.75A9.36,9.36,0,0,0,50.12,259Z"/><path d="M101.16,241.66a74.65,74.65,0,0,1,11.67-.66c.3,0,1.23,0,2.15,0l.13,7.44a40.14,40.14,0,0,0-5.76-.31A59.52,59.52,0,0,0,97,249.27L96.54,243c-2.11.22-2.64.26-4,.35-.75,4.13-1.54,7.39-2.77,12-1.1,3.87-1.37,4.84-3.26,10.51-.7,2.12-.7,2.12-1,3.17l-8.1-2.95c2.9-5.63,5.77-14.39,7.39-22.53h-.7c-1.41,0-2.33,0-4.23-.13h-.44a9.79,9.79,0,0,0-1,0l.13-7.17a45,45,0,0,0,6.69.44h.84a42.71,42.71,0,0,0,.75-6.6v-.66l8.23.62a13.7,13.7,0,0,0-.58,2.55c0,.26-.3,1.54-.7,3.78a48.91,48.91,0,0,0,7.22-1.14Zm1.54,12.1c-1.67,2-2.37,3.44-2.37,4.8,0,2,1.8,3,5.5,3a33.14,33.14,0,0,0,10.38-1.71l.53,7.7c-.88.08-1.27.13-2.33.26a54.11,54.11,0,0,1-8.58.7q-12.94,0-12.94-8.31c0-2.56,1-5,3.43-8.54Z"/><path d="M127,238.67a26.53,26.53,0,0,1-4.4,4.93,23.19,23.19,0,0,0-4.09-5,23.53,23.53,0,0,0,4.4-5,16.15,16.15,0,0,0,2.2-4.7l6.73,1c-.88,1.89-.88,1.89-1.32,2.81h4.58a23.38,23.38,0,0,0,3.82-.22v4a19.4,19.4,0,0,0,3.48-7.7l6.82.92c-.17.4-.57,1.41-1.19,2.95h7.18a26.92,26.92,0,0,0,4.44-.22v6.47a39.08,39.08,0,0,0-4.27-.18h-1.89a21.73,21.73,0,0,1,1.28,2.91l-2.6.52,4.05,4.32c-5.63,1-8.45,1.45-13.47,2,0,1.41-.08,1.85-.17,2.81h11.09a45.53,45.53,0,0,0,5.76-.26v6.64a51.24,51.24,0,0,0-5.76-.26h-9.11a15.5,15.5,0,0,0,6.91,4.45,34.3,34.3,0,0,0,8.93,1.62,29,29,0,0,0-3.08,7.13,28.77,28.77,0,0,1-11.13-4,20.24,20.24,0,0,1-6.65-6,17.78,17.78,0,0,1-6.07,5.94c-3,1.9-5.94,2.91-11.49,4a24.94,24.94,0,0,0-3.12-6.65c4.53-.52,6.82-1.05,9.42-2.2a11.64,11.64,0,0,0,5.5-4.31h-8.63a52.48,52.48,0,0,0-5.72.26V251a49.59,49.59,0,0,0,5.72.26h10.69A16.58,16.58,0,0,0,136,249c-4,.26-7.09.35-11.71.4a26.22,26.22,0,0,0-2.33-5.55c1,0,1.85,0,2.33,0a163.46,163.46,0,0,0,17.12-.93,27.1,27.1,0,0,0-4.49-4l.31-.35h-2.47c.53,1.14.71,1.63,1.32,3.17l-6.6,1.23a26,26,0,0,0-1.36-4.4Zm18.13,0a33.2,33.2,0,0,1-3,4.18c2.47-.35,3.87-.57,5.85-1a26.07,26.07,0,0,0-1.14-3.17Z"/><path d="M185.47,261.46c-1.19,0-2,.05-2.91.09l.66.71c-.61.48-1.1.83-1.41,1.1a42.93,42.93,0,0,1-12.71,7.26,18.41,18.41,0,0,0-2.78-4.27,20.53,20.53,0,0,1-1.8,3.87,25.13,25.13,0,0,0-4.27-7.08c1.63-3.74,2.16-7.88,2.16-17.52,0-2.07,0-2.86-.09-4.66,1.19.08,1.94.13,3.39.17a17.47,17.47,0,0,0-1-3.83,18,18,0,0,0-2.47.14v-6a23.63,23.63,0,0,0,4,.22h2.64a9.2,9.2,0,0,0-.22-2.46h7a10,10,0,0,0-.22,2.46h1.76a27.62,27.62,0,0,0,3.74-.17v5.94a6.43,6.43,0,0,0-1.19-.09c-.44,1.41-.88,2.86-1.23,3.78a17.43,17.43,0,0,0,3-.17v6a20,20,0,0,0-3.21-.13h-.62l1.94,1.32a28.82,28.82,0,0,1-9.16,6.07,16.58,16.58,0,0,0-1.89-2.59c-.09,2.15-.13,3.47-.31,5.28a26.52,26.52,0,0,0,9.9-6.21l3.83,3.61c-5,4.31-7,5.68-12,7.75a18.93,18.93,0,0,0-2-3,30.89,30.89,0,0,1-1.23,6.17,34,34,0,0,0,5.72-2.38,27.79,27.79,0,0,0,7-4.8l3,3.26c0-1.1.09-2.47.09-3.79V242.19c0-2.29-.09-3.7-.09-4.14a35.68,35.68,0,0,0,3.61.09h1.72c.7-1.5.7-1.5.92-1.94h-1.8c-2.38,0-3.57.05-5,.18V230a33.37,33.37,0,0,0,5,.22H197a35.54,35.54,0,0,0,5.2-.22v6.38a51.24,51.24,0,0,0-5.2-.18h-1.63a20.43,20.43,0,0,1-.88,1.94h2c2.77,0,3.52,0,4.66-.09a40.88,40.88,0,0,0-.17,4.23v14.48c0,1.76,0,3.34.17,4.84-1.58-.09-2.64-.14-3.82-.14h-.84a21.47,21.47,0,0,0,6.47,3.61,47.56,47.56,0,0,0-3.92,5.59,36.07,36.07,0,0,1-7.61-6,26.14,26.14,0,0,1-8.89,6.21,22.82,22.82,0,0,0-3.61-5.15c3.61-1.32,5.54-2.42,7.44-4.23Zm-16.9-14.65,0,2.51a25.88,25.88,0,0,0,4.93-2.51Zm4.18-5.68a20.49,20.49,0,0,0,1.14-3.83h-3.43c.35,1.32.66,2.73.84,3.83ZM191.32,264l2.64-2.51h-5.72Zm-2.73-19.23h6v-1.58h-6Zm0,5.68h6v-1.54h-6Zm0,5.85h6V254.6h-6Z"/><path d="M204.38,234.27c.75,0,1.32,0,1.68,0,1.14,0,2.72-.09,7.52-.39,6.34-.4,10.61-.62,19-.93l4.53-.17,1.85-.09c1.5,0,1.76-.09,2-.09a3.45,3.45,0,0,0,1-.18l.4,8a6.6,6.6,0,0,0-1.23-.09A20.61,20.61,0,0,0,231,243.42c-4.4,2.69-7,6.38-7,10,0,2.55,1.19,4.27,3.7,5.46a23.24,23.24,0,0,0,8.4,1.58c.35,0,.66,0,1.32,0l-1,8.36a12,12,0,0,0-1.63-.22c-5-.44-8.31-1.19-11.13-2.47-5.19-2.42-7.88-6.46-7.88-12a15,15,0,0,1,3.74-9.95,18.06,18.06,0,0,1,4.31-3.74l-2.06.22c-1,.09-2.51.22-10.74.88a48.11,48.11,0,0,0-6.21.84Zm31.2,10a28.58,28.58,0,0,1,4.27,6.38l-4.22,1.94a27.49,27.49,0,0,0-4.27-6.51Zm5.9-2.55a30.12,30.12,0,0,1,4.31,6.2l-4.09,1.9a31.26,31.26,0,0,0-4.18-6.34Z"/><path d="M256.22,262.08C252,264,252,264,248.65,265.34c-1,.35-1,.35-2.2.88l-1.67-7a43.94,43.94,0,0,0,5.14-1.45v-8.06h-.79a21.38,21.38,0,0,0-3,.18v-6.25a22.56,22.56,0,0,0,3.16.18h.66v-6.56h-.57a31.21,31.21,0,0,0-3.78.18V231a41.31,41.31,0,0,0,4.22.22h6.6a29.49,29.49,0,0,0,4.14-.22v5.15c.88,0,1.8.09,2.77.09h5.5v-2.47a42.45,42.45,0,0,0-.26-4.57h6.91a22.79,22.79,0,0,0-.22,3.78v3.26h4.35a31.38,31.38,0,0,0-4.22-3.7l4.71-3.69a42.86,42.86,0,0,1,5.41,4.75l-3.3,2.64a38.09,38.09,0,0,0,4.09-.22v6.47c-1.36-.13-2.59-.22-3.78-.22h-7.22a25.27,25.27,0,0,0,2.16,6.29,26.34,26.34,0,0,0,4-6.12l5.41,3.66a49.22,49.22,0,0,1-6.16,8.18,25,25,0,0,0,7,7.22,34.63,34.63,0,0,0-3.88,6.86,24,24,0,0,1-5.1-5.67,25.16,25.16,0,0,1-3.56-7c0,.79,0,1.41.08,1.85.14,2.11.14,2.11.14,3.65V266c0,2.16-.66,3.26-2.29,3.79a17.2,17.2,0,0,1-4.76.57c-1,0-1.67,0-4-.13a18.55,18.55,0,0,0-1.67-6.16c-.48.39-1.41,1.1-2.86,2.2l-1.23,1Zm.13-18.26h.35a16.35,16.35,0,0,0,2.69-.13v1.4l4.31-2.55a41.91,41.91,0,0,1,5.1,7.22v-7.48h-5.89a36.66,36.66,0,0,0-3.92.17V237.3c-.79,0-1.23,0-2.07,0h-.57Zm3.92,14.08a59,59,0,0,0,6.38-4.62l2.15,5.24v-8.41l-5.37,3.56a37.71,37.71,0,0,0-4-6.73v2.91c-1-.09-1.81-.14-2.69-.14h-.35v5.64a35.69,35.69,0,0,0,3.92-1.85Zm8.53,1c-2.11,1.89-3.3,2.86-5.85,4.89,1.41.17,3.56.3,4.58.3s1.27-.17,1.27-.92Z"/><path d="M305,256.93a26.17,26.17,0,0,1-4.7,2.73c-.53-.7-.71-.92-1.24-1.54a66,66,0,0,1-9.33,4.75,8.72,8.72,0,0,0-1.1.53l-1.27-7.17a21.3,21.3,0,0,0,4.18-1.28v-9.81h-.66a16.79,16.79,0,0,0-3.08.22v-6.47a21.07,21.07,0,0,0,3.08.17h.66v-4.79a29.24,29.24,0,0,0-.27-5h7a29.52,29.52,0,0,0-.26,5v4.79h.48a19.49,19.49,0,0,0,2.6-.13v6.34a14.1,14.1,0,0,0-2.47-.13H298v7.13l2.24-1.1v-5.5a34.38,34.38,0,0,0,4.23.17H324.2a45.06,45.06,0,0,0,4.75-.22v5.59a36,36,0,0,0-4.7-.22H310.74c-.36.53-.45.66-.89,1.23h14c2.11,0,2.9,0,4.22-.13a21.39,21.39,0,0,0-.13,2.69c-.13,6.33-.79,10.82-1.89,12.76s-3.13,2.59-7.26,2.59c-.88,0-1.5,0-3.52-.17a22.44,22.44,0,0,0-1.1-4.23,27.45,27.45,0,0,1-8.54,4.93,15.7,15.7,0,0,0-3.83-4.18c6.51-2.2,10.65-5.19,13.16-9.55H313.2c-3,4.14-6.51,6.56-12.5,8.63a14.81,14.81,0,0,0-3.17-3.92,26.92,26.92,0,0,0,6-2.16,13.22,13.22,0,0,0,3.61-2.55Zm-4.48-2.86a12.8,12.8,0,0,0,4-3.08,28.73,28.73,0,0,0-4,.22Zm5.94-9.5c-1.59,0-3,0-4.05.13.13-1.41.17-2.6.17-4.53V234a38.59,38.59,0,0,0-.17-4.14,32.2,32.2,0,0,0,4.71.22h13.95a33.21,33.21,0,0,0,4.84-.22,39.09,39.09,0,0,0-.18,4.62v5.77a41.54,41.54,0,0,0,.18,4.44c-.84,0-.84,0-4-.08Zm2.46-8.76h10.39v-1.23H308.93Zm0,4.8h10.39v-1.24H308.93Zm12,16.32a24.81,24.81,0,0,1-4.84,6.95c1,.09,1.76.14,2.47.14,1.76,0,2.07-.31,2.51-2.42.17-1.06.3-2.29.48-4.67Z"/><path d="M331.1,234.27c.75,0,1.32,0,1.68,0,1.14,0,2.72-.09,7.52-.39,6.34-.4,10.61-.62,19-.93l4.53-.17,1.85-.09c1.5,0,1.76-.09,2-.09a3.45,3.45,0,0,0,1-.18l.4,8a6.55,6.55,0,0,0-1.23-.09,20.61,20.61,0,0,0-10.08,3.08c-4.4,2.69-7,6.38-7,10,0,2.55,1.19,4.27,3.7,5.46a23.24,23.24,0,0,0,8.4,1.58c.35,0,.66,0,1.32,0l-1,8.36a12,12,0,0,0-1.63-.22c-5-.44-8.31-1.19-11.13-2.47-5.19-2.42-7.88-6.46-7.88-12a15,15,0,0,1,3.74-9.95,18.06,18.06,0,0,1,4.31-3.74l-2.06.22c-1,.09-2.51.22-10.74.88a48.11,48.11,0,0,0-6.21.84Zm31.2,10a28.58,28.58,0,0,1,4.27,6.38l-4.22,1.94a27.49,27.49,0,0,0-4.27-6.51Zm5.9-2.55a30.12,30.12,0,0,1,4.31,6.2l-4.09,1.9a31.26,31.26,0,0,0-4.18-6.34Z"/><path d="M381.09,244.79a40.46,40.46,0,0,1-6.16,3,28.86,28.86,0,0,0-3.3-6.47,33.6,33.6,0,0,0,10.12-4.84,26.07,26.07,0,0,0,7.39-7.13h7.13a25.93,25.93,0,0,0,7.44,6.78A38,38,0,0,0,414.23,241a29.52,29.52,0,0,0-3.09,6.95,40.37,40.37,0,0,1-6.55-3.21v2.51a38.51,38.51,0,0,0-4.18-.18H385.23a41.42,41.42,0,0,0-4.14.18Zm-2,11a44.81,44.81,0,0,0-5.37.27v-6.74c1.54.14,3.34.22,5.37.22h27.63c2.12,0,3.74-.08,5.33-.22V256a44.21,44.21,0,0,0-5.33-.27h-4.35a96.26,96.26,0,0,1,9.28,11.36l-6.07,3.74-2.07-3.26c-5.1.57-5.1.57-7.52.79-2.91.31-14.79,1.32-16.64,1.41-1.54.13-2.77.26-3.87.44l-.84-7.35c1.15.09,1.94.13,2.91.13.48,0,.48,0,3.08-.08a53.61,53.61,0,0,0,3.83-7.18ZM399,241.13a32.07,32.07,0,0,1-6.16-5.85,30.59,30.59,0,0,1-6.21,5.85Zm-6.78,14.61a54.56,54.56,0,0,1-3.83,7c6.43-.27,6.43-.27,11-.66-1.24-1.5-1.85-2.2-3.75-4.23l5.2-2.07Z"/><path d="M440.8,242.1c-.66.09-.79.09-1.67.27-1.72.3-4.49.66-6.65.88v3.87a25.86,25.86,0,0,1,6.43-.75c5.41,0,9.46,1.36,12,4a11,11,0,0,1,3,7.79A10.66,10.66,0,0,1,443,269c-5.46,0-8.63-3.65-8.63-10v-1.1a26.06,26.06,0,0,0,6.69-2.68c0,.92-.09,1.41-.09,2.33a7.31,7.31,0,0,0,.35,2.77,2.05,2.05,0,0,0,1.94,1.32c1.89,0,3.17-1.54,3.17-3.78a4.7,4.7,0,0,0-2.16-3.87,9.8,9.8,0,0,0-5.23-1.15,23.43,23.43,0,0,0-6.47.88l0,7.79v1.15c0,2.68-.18,3.65-.84,4.57a5.27,5.27,0,0,1-4.48,1.94,15.69,15.69,0,0,1-9.51-3.48,7.65,7.65,0,0,1-2.86-5.72c0-2.38,1.45-5,4.09-7.3a23.33,23.33,0,0,1,6.56-3.92V243.6l-3.35.09-4.26-.09c-.14,0-.53,0-.93,0l-.09-6.91a32.71,32.71,0,0,0,6,.4h1.67a8,8,0,0,1,.89,0v-1.4a32.54,32.54,0,0,0-.31-5.94h7.61a34.67,34.67,0,0,0-.26,5.5v1.4a47.08,47.08,0,0,0,8.05-1.49Zm-15.27,14c-2.07,1-3.65,2.69-3.65,3.92a1.71,1.71,0,0,0,1,1.41,4.43,4.43,0,0,0,2,.7c.57,0,.7-.31.7-1.76Zm24.6-9.68A38.31,38.31,0,0,0,441.46,236l5.81-3.92a37.27,37.27,0,0,1,8.67,9.73Z"/><path d="M460.11,243.77c1.37,0,1.37,0,5.81-.74a84.51,84.51,0,0,1,14.79-1.37c5.76,0,9.5,1.54,11.57,4.84a11,11,0,0,1,1.67,5.94c0,5.42-3.47,10.52-9.19,13.51-3.83,2-7.79,3.08-15,4a24.25,24.25,0,0,0-3-7.57A37.69,37.69,0,0,0,479,260.19c2.95-1.1,4.93-2.6,5.94-4.45a6.5,6.5,0,0,0,.83-3c0-2.64-1.93-4-5.59-4a65.77,65.77,0,0,0-18.3,3.16Zm7.22-14.39a62,62,0,0,0,18.22,2.42c.79,0,1.54,0,3,0l-1,7.48A109.06,109.06,0,0,1,465,236.56Z"/><path class="cls-6" d="M18.27,231.14,16.86,240H21.7l1.41-8.85h6.47L28.17,240H33v5.94H27.2l-1.06,6.73H31v5.94H25.22l-1.45,9.16H17.3l1.45-9.16H13.91l-1.45,9.16H6l1.45-9.16H2.56v-5.94H8.41l1.06-6.73H4.58V240h5.85l1.41-8.85Zm-3.39,21.52h4.84l1-6.73H15.89Z"/><path class="cls-6" d="M37.4,233.92a63.8,63.8,0,0,0,12.68.92c.53,0,1.1,0,2.42,0a30.71,30.71,0,0,0-.27-4.8H60a27.31,27.31,0,0,0-.35,4.58A69,69,0,0,0,72.13,233l.22,6.73c-1.28.09-1.54.09-3.88.4a87.62,87.62,0,0,1-8.84.74v2.78A70.35,70.35,0,0,0,71,242.37l.18,6.73c-.93,0-.93,0-2.82.22s-6.2.53-8.62.61c0,2,0,2,.13,3.88a25.12,25.12,0,0,1,6,2.37,43.84,43.84,0,0,1,5.89,3.66c.66.44,1,.61,1.68,1.05L69.26,268a23.44,23.44,0,0,0-3-2.82A23,23,0,0,0,60,261.24,7.66,7.66,0,0,1,59,265.69c-1.45,2.24-4.8,3.48-9.6,3.48-7.21,0-11.31-2.95-11.31-8.06,0-3.21,2-5.85,5.55-7.17a22.28,22.28,0,0,1,7.83-1.19h1.37c-.05-1.5-.09-2.38-.09-2.6-.93,0-2.73,0-3.39,0-2.55,0-4.58,0-7.08-.18-1.94-.09-2.16-.13-3.48-.13l.09-6.56a67.15,67.15,0,0,0,10.82.71c.93,0,1.59,0,3,0v-.66c0-.08,0-.08,0-1.14v-1.06c-1,.05-1.46.05-1.85.05-2.38,0-3.13-.05-8.19-.27-1.67,0-1.67,0-3.3-.13-.61,0-1,0-1.19,0h-.74ZM50.12,259c-2.68,0-4.22.75-4.22,2.11,0,1.1,1.23,1.76,3.43,1.76,2.46,0,3.52-.83,3.52-2.81,0-.27,0-.75,0-.75A9.36,9.36,0,0,0,50.12,259Z"/><path class="cls-6" d="M101.16,241.66a74.65,74.65,0,0,1,11.67-.66c.3,0,1.23,0,2.15,0l.13,7.44a40.14,40.14,0,0,0-5.76-.31A59.52,59.52,0,0,0,97,249.27L96.54,243c-2.11.22-2.64.26-4,.35-.75,4.13-1.54,7.39-2.77,12-1.1,3.87-1.37,4.84-3.26,10.51-.7,2.12-.7,2.12-1,3.17l-8.1-2.95c2.9-5.63,5.77-14.39,7.39-22.53h-.7c-1.41,0-2.33,0-4.23-.13h-.44a9.79,9.79,0,0,0-1,0l.13-7.17a45,45,0,0,0,6.69.44h.84a42.71,42.71,0,0,0,.75-6.6v-.66l8.23.62a13.7,13.7,0,0,0-.58,2.55c0,.26-.3,1.54-.7,3.78a48.91,48.91,0,0,0,7.22-1.14Zm1.54,12.1c-1.67,2-2.37,3.44-2.37,4.8,0,2,1.8,3,5.5,3a33.14,33.14,0,0,0,10.38-1.71l.53,7.7c-.88.08-1.27.13-2.33.26a54.11,54.11,0,0,1-8.58.7q-12.94,0-12.94-8.31c0-2.56,1-5,3.43-8.54Z"/><path class="cls-6" d="M127,238.67a26.53,26.53,0,0,1-4.4,4.93,23.19,23.19,0,0,0-4.09-5,23.53,23.53,0,0,0,4.4-5,16.15,16.15,0,0,0,2.2-4.7l6.73,1c-.88,1.89-.88,1.89-1.32,2.81h4.58a23.38,23.38,0,0,0,3.82-.22v4a19.4,19.4,0,0,0,3.48-7.7l6.82.92c-.17.4-.57,1.41-1.19,2.95h7.18a26.92,26.92,0,0,0,4.44-.22v6.47a39.08,39.08,0,0,0-4.27-.18h-1.89a21.73,21.73,0,0,1,1.28,2.91l-2.6.52,4.05,4.32c-5.63,1-8.45,1.45-13.47,2,0,1.41-.08,1.85-.17,2.81h11.09a45.53,45.53,0,0,0,5.76-.26v6.64a51.24,51.24,0,0,0-5.76-.26h-9.11a15.5,15.5,0,0,0,6.91,4.45,34.3,34.3,0,0,0,8.93,1.62,29,29,0,0,0-3.08,7.13,28.77,28.77,0,0,1-11.13-4,20.24,20.24,0,0,1-6.65-6,17.78,17.78,0,0,1-6.07,5.94c-3,1.9-5.94,2.91-11.49,4a24.94,24.94,0,0,0-3.12-6.65c4.53-.52,6.82-1.05,9.42-2.2a11.64,11.64,0,0,0,5.5-4.31h-8.63a52.48,52.48,0,0,0-5.72.26V251a49.59,49.59,0,0,0,5.72.26h10.69A16.58,16.58,0,0,0,136,249c-4,.26-7.09.35-11.71.4a26.22,26.22,0,0,0-2.33-5.55c1,0,1.85,0,2.33,0a163.46,163.46,0,0,0,17.12-.93,27.1,27.1,0,0,0-4.49-4l.31-.35h-2.47c.53,1.14.71,1.63,1.32,3.17l-6.6,1.23a26,26,0,0,0-1.36-4.4Zm18.13,0a33.2,33.2,0,0,1-3,4.18c2.47-.35,3.87-.57,5.85-1a26.07,26.07,0,0,0-1.14-3.17Z"/><path class="cls-6" d="M185.47,261.46c-1.19,0-2,.05-2.91.09l.66.71c-.61.48-1.1.83-1.41,1.1a42.93,42.93,0,0,1-12.71,7.26,18.41,18.41,0,0,0-2.78-4.27,20.53,20.53,0,0,1-1.8,3.87,25.13,25.13,0,0,0-4.27-7.08c1.63-3.74,2.16-7.88,2.16-17.52,0-2.07,0-2.86-.09-4.66,1.19.08,1.94.13,3.39.17a17.47,17.47,0,0,0-1-3.83,18,18,0,0,0-2.47.14v-6a23.63,23.63,0,0,0,4,.22h2.64a9.2,9.2,0,0,0-.22-2.46h7a10,10,0,0,0-.22,2.46h1.76a27.62,27.62,0,0,0,3.74-.17v5.94a6.43,6.43,0,0,0-1.19-.09c-.44,1.41-.88,2.86-1.23,3.78a17.43,17.43,0,0,0,3-.17v6a20,20,0,0,0-3.21-.13h-.62l1.94,1.32a28.82,28.82,0,0,1-9.16,6.07,16.58,16.58,0,0,0-1.89-2.59c-.09,2.15-.13,3.47-.31,5.28a26.52,26.52,0,0,0,9.9-6.21l3.83,3.61c-5,4.31-7,5.68-12,7.75a18.93,18.93,0,0,0-2-3,30.89,30.89,0,0,1-1.23,6.17,34,34,0,0,0,5.72-2.38,27.79,27.79,0,0,0,7-4.8l3,3.26c0-1.1.09-2.47.09-3.79V242.19c0-2.29-.09-3.7-.09-4.14a35.68,35.68,0,0,0,3.61.09h1.72c.7-1.5.7-1.5.92-1.94h-1.8c-2.38,0-3.57.05-5,.18V230a33.37,33.37,0,0,0,5,.22H197a35.54,35.54,0,0,0,5.2-.22v6.38a51.24,51.24,0,0,0-5.2-.18h-1.63a20.43,20.43,0,0,1-.88,1.94h2c2.77,0,3.52,0,4.66-.09a40.88,40.88,0,0,0-.17,4.23v14.48c0,1.76,0,3.34.17,4.84-1.58-.09-2.64-.14-3.82-.14h-.84a21.47,21.47,0,0,0,6.47,3.61,47.56,47.56,0,0,0-3.92,5.59,36.07,36.07,0,0,1-7.61-6,26.14,26.14,0,0,1-8.89,6.21,22.82,22.82,0,0,0-3.61-5.15c3.61-1.32,5.54-2.42,7.44-4.23Zm-16.9-14.65,0,2.51a25.88,25.88,0,0,0,4.93-2.51Zm4.18-5.68a20.49,20.49,0,0,0,1.14-3.83h-3.43c.35,1.32.66,2.73.84,3.83ZM191.32,264l2.64-2.51h-5.72Zm-2.73-19.23h6v-1.58h-6Zm0,5.68h6v-1.54h-6Zm0,5.85h6V254.6h-6Z"/><path class="cls-6" d="M204.38,234.27c.75,0,1.32,0,1.68,0,1.14,0,2.72-.09,7.52-.39,6.34-.4,10.61-.62,19-.93l4.53-.17,1.85-.09c1.5,0,1.76-.09,2-.09a3.45,3.45,0,0,0,1-.18l.4,8a6.6,6.6,0,0,0-1.23-.09A20.61,20.61,0,0,0,231,243.42c-4.4,2.69-7,6.38-7,10,0,2.55,1.19,4.27,3.7,5.46a23.24,23.24,0,0,0,8.4,1.58c.35,0,.66,0,1.32,0l-1,8.36a12,12,0,0,0-1.63-.22c-5-.44-8.31-1.19-11.13-2.47-5.19-2.42-7.88-6.46-7.88-12a15,15,0,0,1,3.74-9.95,18.06,18.06,0,0,1,4.31-3.74l-2.06.22c-1,.09-2.51.22-10.74.88a48.11,48.11,0,0,0-6.21.84Zm31.2,10a28.58,28.58,0,0,1,4.27,6.38l-4.22,1.94a27.49,27.49,0,0,0-4.27-6.51Zm5.9-2.55a30.12,30.12,0,0,1,4.31,6.2l-4.09,1.9a31.26,31.26,0,0,0-4.18-6.34Z"/><path class="cls-6" d="M256.22,262.08C252,264,252,264,248.65,265.34c-1,.35-1,.35-2.2.88l-1.67-7a43.94,43.94,0,0,0,5.14-1.45v-8.06h-.79a21.38,21.38,0,0,0-3,.18v-6.25a22.56,22.56,0,0,0,3.16.18h.66v-6.56h-.57a31.21,31.21,0,0,0-3.78.18V231a41.31,41.31,0,0,0,4.22.22h6.6a29.49,29.49,0,0,0,4.14-.22v5.15c.88,0,1.8.09,2.77.09h5.5v-2.47a42.45,42.45,0,0,0-.26-4.57h6.91a22.79,22.79,0,0,0-.22,3.78v3.26h4.35a31.38,31.38,0,0,0-4.22-3.7l4.71-3.69a42.86,42.86,0,0,1,5.41,4.75l-3.3,2.64a38.09,38.09,0,0,0,4.09-.22v6.47c-1.36-.13-2.59-.22-3.78-.22h-7.22a25.27,25.27,0,0,0,2.16,6.29,26.34,26.34,0,0,0,4-6.12l5.41,3.66a49.22,49.22,0,0,1-6.16,8.18,25,25,0,0,0,7,7.22,34.63,34.63,0,0,0-3.88,6.86,24,24,0,0,1-5.1-5.67,25.16,25.16,0,0,1-3.56-7c0,.79,0,1.41.08,1.85.14,2.11.14,2.11.14,3.65V266c0,2.16-.66,3.26-2.29,3.79a17.2,17.2,0,0,1-4.76.57c-1,0-1.67,0-4-.13a18.55,18.55,0,0,0-1.67-6.16c-.48.39-1.41,1.1-2.86,2.2l-1.23,1Zm.13-18.26h.35a16.35,16.35,0,0,0,2.69-.13v1.4l4.31-2.55a41.91,41.91,0,0,1,5.1,7.22v-7.48h-5.89a36.66,36.66,0,0,0-3.92.17V237.3c-.79,0-1.23,0-2.07,0h-.57Zm3.92,14.08a59,59,0,0,0,6.38-4.62l2.15,5.24v-8.41l-5.37,3.56a37.71,37.71,0,0,0-4-6.73v2.91c-1-.09-1.81-.14-2.69-.14h-.35v5.64a35.69,35.69,0,0,0,3.92-1.85Zm8.53,1c-2.11,1.89-3.3,2.86-5.85,4.89,1.41.17,3.56.3,4.58.3s1.27-.17,1.27-.92Z"/><path class="cls-6" d="M305,256.93a26.17,26.17,0,0,1-4.7,2.73c-.53-.7-.71-.92-1.24-1.54a66,66,0,0,1-9.33,4.75,8.72,8.72,0,0,0-1.1.53l-1.27-7.17a21.3,21.3,0,0,0,4.18-1.28v-9.81h-.66a16.79,16.79,0,0,0-3.08.22v-6.47a21.07,21.07,0,0,0,3.08.17h.66v-4.79a29.24,29.24,0,0,0-.27-5h7a29.52,29.52,0,0,0-.26,5v4.79h.48a19.49,19.49,0,0,0,2.6-.13v6.34a14.1,14.1,0,0,0-2.47-.13H298v7.13l2.24-1.1v-5.5a34.38,34.38,0,0,0,4.23.17H324.2a45.06,45.06,0,0,0,4.75-.22v5.59a36,36,0,0,0-4.7-.22H310.74c-.36.53-.45.66-.89,1.23h14c2.11,0,2.9,0,4.22-.13a21.39,21.39,0,0,0-.13,2.69c-.13,6.33-.79,10.82-1.89,12.76s-3.13,2.59-7.26,2.59c-.88,0-1.5,0-3.52-.17a22.44,22.44,0,0,0-1.1-4.23,27.45,27.45,0,0,1-8.54,4.93,15.7,15.7,0,0,0-3.83-4.18c6.51-2.2,10.65-5.19,13.16-9.55H313.2c-3,4.14-6.51,6.56-12.5,8.63a14.81,14.81,0,0,0-3.17-3.92,26.92,26.92,0,0,0,6-2.16,13.22,13.22,0,0,0,3.61-2.55Zm-4.48-2.86a12.8,12.8,0,0,0,4-3.08,28.73,28.73,0,0,0-4,.22Zm5.94-9.5c-1.59,0-3,0-4.05.13.13-1.41.17-2.6.17-4.53V234a38.59,38.59,0,0,0-.17-4.14,32.2,32.2,0,0,0,4.71.22h13.95a33.21,33.21,0,0,0,4.84-.22,39.09,39.09,0,0,0-.18,4.62v5.77a41.54,41.54,0,0,0,.18,4.44c-.84,0-.84,0-4-.08Zm2.46-8.76h10.39v-1.23H308.93Zm0,4.8h10.39v-1.24H308.93Zm12,16.32a24.81,24.81,0,0,1-4.84,6.95c1,.09,1.76.14,2.47.14,1.76,0,2.07-.31,2.51-2.42.17-1.06.3-2.29.48-4.67Z"/><path class="cls-6" d="M331.1,234.27c.75,0,1.32,0,1.68,0,1.14,0,2.72-.09,7.52-.39,6.34-.4,10.61-.62,19-.93l4.53-.17,1.85-.09c1.5,0,1.76-.09,2-.09a3.45,3.45,0,0,0,1-.18l.4,8a6.55,6.55,0,0,0-1.23-.09,20.61,20.61,0,0,0-10.08,3.08c-4.4,2.69-7,6.38-7,10,0,2.55,1.19,4.27,3.7,5.46a23.24,23.24,0,0,0,8.4,1.58c.35,0,.66,0,1.32,0l-1,8.36a12,12,0,0,0-1.63-.22c-5-.44-8.31-1.19-11.13-2.47-5.19-2.42-7.88-6.46-7.88-12a15,15,0,0,1,3.74-9.95,18.06,18.06,0,0,1,4.31-3.74l-2.06.22c-1,.09-2.51.22-10.74.88a48.11,48.11,0,0,0-6.21.84Zm31.2,10a28.58,28.58,0,0,1,4.27,6.38l-4.22,1.94a27.49,27.49,0,0,0-4.27-6.51Zm5.9-2.55a30.12,30.12,0,0,1,4.31,6.2l-4.09,1.9a31.26,31.26,0,0,0-4.18-6.34Z"/><path class="cls-6" d="M381.09,244.79a40.46,40.46,0,0,1-6.16,3,28.86,28.86,0,0,0-3.3-6.47,33.6,33.6,0,0,0,10.12-4.84,26.07,26.07,0,0,0,7.39-7.13h7.13a25.93,25.93,0,0,0,7.44,6.78A38,38,0,0,0,414.23,241a29.52,29.52,0,0,0-3.09,6.95,40.37,40.37,0,0,1-6.55-3.21v2.51a38.51,38.51,0,0,0-4.18-.18H385.23a41.42,41.42,0,0,0-4.14.18Zm-2,11a44.81,44.81,0,0,0-5.37.27v-6.74c1.54.14,3.34.22,5.37.22h27.63c2.12,0,3.74-.08,5.33-.22V256a44.21,44.21,0,0,0-5.33-.27h-4.35a96.26,96.26,0,0,1,9.28,11.36l-6.07,3.74-2.07-3.26c-5.1.57-5.1.57-7.52.79-2.91.31-14.79,1.32-16.64,1.41-1.54.13-2.77.26-3.87.44l-.84-7.35c1.15.09,1.94.13,2.91.13.48,0,.48,0,3.08-.08a53.61,53.61,0,0,0,3.83-7.18ZM399,241.13a32.07,32.07,0,0,1-6.16-5.85,30.59,30.59,0,0,1-6.21,5.85Zm-6.78,14.61a54.56,54.56,0,0,1-3.83,7c6.43-.27,6.43-.27,11-.66-1.24-1.5-1.85-2.2-3.75-4.23l5.2-2.07Z"/><path class="cls-6" d="M440.8,242.1c-.66.09-.79.09-1.67.27-1.72.3-4.49.66-6.65.88v3.87a25.86,25.86,0,0,1,6.43-.75c5.41,0,9.46,1.36,12,4a11,11,0,0,1,3,7.79A10.66,10.66,0,0,1,443,269c-5.46,0-8.63-3.65-8.63-10v-1.1a26.06,26.06,0,0,0,6.69-2.68c0,.92-.09,1.41-.09,2.33a7.31,7.31,0,0,0,.35,2.77,2.05,2.05,0,0,0,1.94,1.32c1.89,0,3.17-1.54,3.17-3.78a4.7,4.7,0,0,0-2.16-3.87,9.8,9.8,0,0,0-5.23-1.15,23.43,23.43,0,0,0-6.47.88l0,7.79v1.15c0,2.68-.18,3.65-.84,4.57a5.27,5.27,0,0,1-4.48,1.94,15.69,15.69,0,0,1-9.51-3.48,7.65,7.65,0,0,1-2.86-5.72c0-2.38,1.45-5,4.09-7.3a23.33,23.33,0,0,1,6.56-3.92V243.6l-3.35.09-4.26-.09c-.14,0-.53,0-.93,0l-.09-6.91a32.71,32.71,0,0,0,6,.4h1.67a8,8,0,0,1,.89,0v-1.4a32.54,32.54,0,0,0-.31-5.94h7.61a34.67,34.67,0,0,0-.26,5.5v1.4a47.08,47.08,0,0,0,8.05-1.49Zm-15.27,14c-2.07,1-3.65,2.69-3.65,3.92a1.71,1.71,0,0,0,1,1.41,4.43,4.43,0,0,0,2,.7c.57,0,.7-.31.7-1.76Zm24.6-9.68A38.31,38.31,0,0,0,441.46,236l5.81-3.92a37.27,37.27,0,0,1,8.67,9.73Z"/><path class="cls-6" d="M460.11,243.77c1.37,0,1.37,0,5.81-.74a84.51,84.51,0,0,1,14.79-1.37c5.76,0,9.5,1.54,11.57,4.84a11,11,0,0,1,1.67,5.94c0,5.42-3.47,10.52-9.19,13.51-3.83,2-7.79,3.08-15,4a24.25,24.25,0,0,0-3-7.57A37.69,37.69,0,0,0,479,260.19c2.95-1.1,4.93-2.6,5.94-4.45a6.5,6.5,0,0,0,.83-3c0-2.64-1.93-4-5.59-4a65.77,65.77,0,0,0-18.3,3.16Zm7.22-14.39a62,62,0,0,0,18.22,2.42c.79,0,1.54,0,3,0l-1,7.48A109.06,109.06,0,0,1,465,236.56Z"/></g></g></svg>